# xmcd CD database file
#
# Track frame offsets:
#	150
#	6725
#	11154
#	27101
#	40679
#	60599
#	74953
#	92793
#	102807
#	129027
#	146864
#	166247
#	214687
#	233402
#	258574
#	288581
#	291726
#
# Disc length: 4125 seconds
#
# Revision: 2
# Processed by: cddbd v1.4PL0 Copyright (c) Steve Scherf et al.
# Submitted via: CDex 1.40Release
#
DISCID=01101b11
DTITLE=Diane Dufresne - Diane Dufresne
DYEAR=1900
DGENRE=Blues
TTITLE0=a faire l'inventaire
TTITLE1=il m'aimera
TTITLE2=un jour il viendra mon amour
TTITLE3=j'ai rencontre l'homme de ma vie
TTITLE4=sur la meme longueur d'ondes
TTITLE5=rock pour un gars d'bicyc
TTITLE6=rond-plein
TTITLE7=tiens-toe ben j'arrive
TTITLE8=mon premier show
TTITLE9=hollywood freak
TTITLE10=chanson pour elvis
TTITLE11=en ecoutant elton john
TTITLE12=la chanteuse straight
TTITLE13=actualites
TTITLE14=les adieux d'un sex-symbol
TTITLE15=taxi
TTITLE16=oxygene (99)
EXTD=ID3G: 0
EXTT0=
EXTT1=
EXTT2=
EXTT3=
EXTT4=
EXTT5=
EXTT6=
EXTT7=
EXTT8=
EXTT9=
EXTT10=
EXTT11=
EXTT12=
EXTT13=
EXTT14=
EXTT15=
EXTT16=
PLAYORDER=
